<?xml version="1.0" encoding="utf-8"?><svg xml:space="preserve" viewBox="0 0 100 100" y="0px" x="0px" xmlns:xlink="http://www.w3.org/1999/xlink" xmlns="http://www.w3.org/2000/svg" id="圖層_1" version="1.1" width="47px" height="47px" style="width:100%;height:100%;background-size:initial;background-repeat-y:initial;background-repeat-x:initial;background-position-y:initial;background-position-x:initial;background-origin:initial;background-image:initial;background-color:rgb(255, 255, 255);background-clip:initial;background-attachment:initial;animation-play-state:paused" ><g class="ldl-scale" style="transform-origin:50% 50%;transform:rotate(0deg) scale(0.8, 0.8);animation-play-state:paused" ><g style="animation-play-state:paused" ><line y2="81.8" x2="36.8" y1="60.9" x1="36.8" stroke-miterlimit="10" stroke-linejoin="round" stroke-linecap="round" stroke-width="3" stroke="#000000" fill="none" style="stroke:rgb(0, 0, 0);animation-play-state:paused" ></line>
<line y2="81.8" x2="63.2" y1="60.9" x1="63.2" stroke-miterlimit="10" stroke-linejoin="round" stroke-linecap="round" stroke-width="3" stroke="#000000" fill="none" style="stroke:rgb(0, 0, 0);animation-play-state:paused" ></line></g>
<g style="animation-play-state:paused" ><line y2="88.9" x2="30.3" y1="60.9" x1="30.3" stroke-miterlimit="10" stroke-linejoin="round" stroke-linecap="round" stroke-width="3" stroke="#000000" fill="none" style="stroke:rgb(0, 0, 0);animation-play-state:paused" ></line>
<line y2="88.9" x2="69.7" y1="60.9" x1="69.7" stroke-miterlimit="10" stroke-linejoin="round" stroke-linecap="round" stroke-width="3" stroke="#000000" fill="none" style="stroke:rgb(0, 0, 0);animation-play-state:paused" ></line></g>
<g style="animation-play-state:paused" ><polyline points="66,25.4 68.8,49.7 31.2,49.7 34,25.4" stroke-miterlimit="10" stroke-linejoin="round" stroke-linecap="round" stroke-width="3" stroke="#000000" fill="none" style="stroke:rgb(0, 0, 0);animation-play-state:paused" ></polyline>
<path d="M70.2,32.2H29.8c-2.8,0-5.2-2.3-5.2-5.2V14.1c0-2.8,2.3-5.2,5.2-5.2h40.3c2.8,0,5.2,2.3,5.2,5.2V27C75.3,29.8,73,32.2,70.2,32.2z" stroke-miterlimit="10" stroke-linejoin="round" stroke-linecap="round" stroke-width="3" stroke="#000000" fill="#F4E6C8" style="stroke:rgb(0, 0, 0);fill:rgb(244, 230, 200);animation-play-state:paused" ></path></g>
<path d="M76.4,60.9H23.6c-1.1,0-2-0.9-2-2v-7.3c0-1.1,0.9-2,2-2h52.8c1.1,0,2,0.9,2,2v7.3C78.4,60,77.5,60.9,76.4,60.9z" stroke-miterlimit="10" stroke-linejoin="round" stroke-linecap="round" stroke-width="3" stroke="#000000" fill="#F7B26A" style="stroke:rgb(0, 0, 0);fill:rgb(247, 178, 106);animation-play-state:paused" ></path>
<metadata xmlns:d="https://loading.io/stock/" style="animation-play-state:paused" ><d:name style="animation-play-state:paused" >chair</d:name>


<d:tags style="animation-play-state:paused" >chair,classroom,seat,stool</d:tags>


<d:license style="animation-play-state:paused" >by</d:license>


<d:slug style="animation-play-state:paused" >5paf2y</d:slug></metadata></g><!-- generated by https://loading.io/ --></svg>